<svg width="112" height="112"  xmlns="http://www.w3.org/2000/svg">
<path fill-rule="evenodd" clip-rule="evenodd" d="M0.297363 32.4H10.0106V22.6H0.297363V32.4Z" fill="#6414E6"/>
<path fill-rule="evenodd" clip-rule="evenodd" d="M22.5982 9.8H32.2124V0H22.5982V9.8Z" fill="white"/>
<path fill-rule="evenodd" clip-rule="evenodd" d="M11.4974 100.3H21.1115V90.5H11.4974V100.3Z" fill="#19BEE6"/>
<path fill-rule="evenodd" clip-rule="evenodd" d="M78.3009 111.6H87.9151V101.8H78.2018L78.3009 111.6Z" fill="#E619DC"/>
<path fill-rule="evenodd" clip-rule="evenodd" d="M67.7886 9.8H77.5017V0H67.7886V9.8ZM56.5734 9.8H66.2866V0H56.5734V9.8ZM45.2581 9.8H55.0714V0H45.2581V9.8ZM34.043 9.8H43.8562V0H34.043V9.8ZM67.7886 21.1H77.5017V11.3H67.7886V21.1ZM56.5734 21.1H66.2866V11.3H56.5734V21.1ZM45.2581 21.1H55.0714V11.3H45.2581V21.1ZM34.043 21.1H43.8562V11.3H34.043V21.1ZM90.319 21.1H100.032V11.3H90.319V21.1ZM79.0037 21.1H88.817V11.3H79.0037V21.1ZM22.8278 21.1H32.5409V11.3H22.8278V21.1ZM11.6127 21.1H21.3258V11.3H11.6127V21.1ZM90.319 32.4H100.032V22.6H90.319V32.4ZM22.8278 32.4H32.5409V22.6H22.8278V32.4ZM11.6127 32.4H21.3258V22.6H11.6127V32.4ZM11.6127 43.7H21.3258V34H11.6127V43.7ZM0.297363 43.7H10.1106V34H0.297363V43.7ZM11.6127 55.1H21.3258V45.2H11.6127V55.1ZM0.297363 55H10.1106V45.1H0.297363V55ZM11.6127 66.4H21.4259V56.6H11.7128L11.6127 66.4ZM0.397499 66.4H10.2108V56.6H0.297363L0.397499 66.4ZM11.7128 77.7H21.4259V67.9H11.7128V77.7ZM0.397499 77.7H10.2108V67.9H0.297363L0.397499 77.7ZM90.319 89H100.032V79.2H90.319V89ZM0.297363 89H10.1106V79.2H0.297363V89ZM22.928 89H32.6411V79.2H22.928V89ZM11.7128 89H21.4259V79.2H11.7128V89ZM90.4192 100.3H100.132V90.5H90.4192V100.3ZM79.1039 100.3H88.9171V90.5H79.1039V100.3ZM67.8887 100.3H77.6018V90.5H67.8887V100.3ZM56.6736 100.3H66.3867V90.5H56.6736V100.3ZM45.3583 100.3H55.0714V90.5H45.2581L45.3583 100.3ZM34.1431 100.3H43.9564V90.5H34.043L34.1431 100.3ZM22.928 100.3H32.6411V90.5H22.928V100.3ZM67.9889 111.6H77.6018V101.8H67.8887L67.9889 111.6ZM56.6736 111.6H66.3867V101.8H56.6736V111.6ZM45.3583 111.6H55.0714V101.8H45.2581L45.3583 111.6ZM34.1431 111.6H43.9564V101.8H34.043L34.1431 111.6ZM22.928 111.6H32.6411V101.8H22.928V111.6Z" fill="white"/>
<path d="M111.297 21.1H101.584V11.3H111.297V21.1Z" fill="white"/>
<path d="M111.297 32.4H101.584V22.6H111.297V32.4Z" fill="white"/>
<path d="M111.297 89H101.484V79.2H111.297V89Z" fill="white"/>
<path d="M111.297 100.3H101.484V90.5H111.297V100.3Z" fill="white"/>
<path d="M87.9151 9.8H78.3009V0H87.9151V9.8Z" fill="#FF6E00"/>
</svg>
